<?xml version="1.0" encoding="UTF-8"?>
<svg version="1.1" xmlns="http://www.w3.org/2000/svg" width="2251" height="600">
<path d="M0 0 C3.29190674 2.97444309 6.50448186 6.02746659 9.703125 9.1015625 C10.24855957 9.61976562 10.79399414 10.13796875 11.35595703 10.671875 C19.64195501 18.57117686 26.90763494 26.89484676 33.703125 36.1015625 C34.42000488 37.0598999 34.42000488 37.0598999 35.15136719 38.03759766 C57.73153538 68.36527906 72.84548186 102.90283547 79.703125 140.1015625 C79.86683594 140.97522461 80.03054688 141.84888672 80.19921875 142.74902344 C85.01152456 169.80332947 84.93291567 200.1268527 79.703125 227.1015625 C79.54215332 227.97200195 79.38118164 228.84244141 79.21533203 229.73925781 C70.88395196 273.70909651 50.5948843 315.5956392 19.703125 348.1015625 C18.48739991 349.4909626 17.27849889 350.88637841 16.078125 352.2890625 C9.75740497 359.52114216 2.91596295 365.84045716 -4.62890625 371.78417969 C-5.79991 372.70905326 -6.9661823 373.63993389 -8.12890625 374.57519531 C-23.88986066 387.23291571 -40.93405743 397.65106673 -59.296875 406.1015625 C-60.00569824 406.4310791 -60.71452148 406.7605957 -61.44482422 407.10009766 C-80.73268298 415.958194 -101.33403935 421.82418147 -122.296875 425.1015625 C-123.41408936 425.27816406 -124.53130371 425.45476562 -125.68237305 425.63671875 C-137.1575791 427.26885168 -148.53057102 427.50055726 -160.109375 427.4765625 C-161.09899231 427.47601868 -162.08860962 427.47547485 -163.10821533 427.47491455 C-179.14739416 427.43448916 -194.5813748 426.57087783 -210.296875 423.1015625 C-211.29219238 422.88193848 -212.28750977 422.66231445 -213.31298828 422.43603516 C-220.0486606 420.89673304 -226.68224926 419.09484445 -233.296875 417.1015625 C-234.1213916 416.85599609 -234.9459082 416.61042969 -235.79541016 416.35742188 C-257.16206633 409.84125797 -277.88964372 399.74392011 -296.296875 387.1015625 C-296.88678223 386.70404785 -297.47668945 386.3065332 -298.08447266 385.89697266 C-307.38724515 379.60652649 -315.91893155 372.56722483 -324.296875 365.1015625 C-324.84682129 364.61478027 -325.39676758 364.12799805 -325.96337891 363.62646484 C-332.16829318 358.11860697 -337.98798713 352.49273438 -343.296875 346.1015625 C-344.10382813 345.18246094 -344.91078125 344.26335937 -345.7421875 343.31640625 C-389.15444972 293.69563901 -408.26700815 228.85634336 -404.06982422 163.56982422 C-398.89015877 101.53259656 -369.43606989 41.77707402 -322.48828125 0.640625 C-319.79347105 -1.58875354 -317.0581514 -3.75206719 -314.296875 -5.8984375 C-312.82347656 -7.07986328 -312.82347656 -7.07986328 -311.3203125 -8.28515625 C-232.21451574 -71.22888475 -118.83632837 -76.56635136 0 0 Z " fill="#FBFCFD" transform="translate(445.296875,115.8984375)"/>
<path d="M0 0 C0.7617453 0.00149048 1.5234906 0.00298096 2.30831909 0.0045166 C15.04914701 0.0491249 27.4047583 0.89172511 39.9375 3.3125 C41.10804932 3.5293042 41.10804932 3.5293042 42.30224609 3.75048828 C97.17474651 14.11440124 146.70587474 47.99157046 178.24414062 93.76660156 C188.4324785 109.08436214 198.30137786 126.3893474 202.9375 144.3125 C197.90428028 141.04305813 192.9745917 137.64150659 188.08862305 134.15722656 C145.18562717 103.59778925 97.82539821 77.78622632 43.42626953 86.82421875 C26.85118728 90.07614778 11.17909114 96.16879931 -4.0625 103.3125 C-4.76246094 103.63831055 -5.46242188 103.96412109 -6.18359375 104.29980469 C-31.48722478 116.19941675 -55.36399758 131.45542962 -77.98828125 147.81494141 C-80.11108193 149.34757551 -82.24221364 150.86801787 -84.375 152.38671875 C-95.31972465 160.20455215 -106.0359864 168.30733043 -116.70214844 176.5 C-118.82246491 178.12817847 -120.9456543 179.7524943 -123.0703125 181.375 C-128.46323332 185.37559886 -128.46323332 185.37559886 -133.56298828 189.72509766 C-135.09765625 191.14453125 -135.09765625 191.14453125 -138.0625 193.3125 C-142.45285602 193.00138741 -146.15836173 190.97737643 -150.03125 189.03125 C-151.4113603 188.35120318 -152.79148793 187.67119153 -154.17163086 186.99121094 C-155.24766068 186.45699524 -155.24766068 186.45699524 -156.34542847 185.9119873 C-172.97935982 177.66290915 -189.8090174 170.17332312 -207.0625 163.3125 C-200.92504974 128.85663892 -182.02830108 96.22994464 -158.359375 70.796875 C-156.3829205 68.65907727 -154.49695344 66.478516 -152.625 64.25 C-132.60510869 41.33679106 -103.3468037 23.82144709 -75.0625 13.3125 C-74.37285156 13.04985352 -73.68320313 12.78720703 -72.97265625 12.51660156 C-49.81691908 3.79546964 -24.67866696 -0.12026015 0 0 Z " fill="#8BD3F5" transform="translate(284.0625,85.6875)"/>
<path d="M0 0 C2.01455256 0.85067934 3.9961141 1.78212374 5.9453125 2.7734375 C7.0902417 3.34562012 8.2351709 3.91780273 9.41479492 4.50732422 C10.01842865 4.81184509 10.62206238 5.11636597 11.24398804 5.43011475 C59.96608856 29.90459722 113.32179382 44.52087802 167.97167969 44.20581055 C171.2598443 44.18744502 174.54772661 44.18530258 177.8359375 44.18554688 C188.93001613 44.16644938 199.94450357 43.97278518 211 43 C209.92174221 46.42503642 208.86375546 49.57254581 206.96875 52.62890625 C206.5756665 53.26473633 206.18258301 53.90056641 205.77758789 54.55566406 C205.35598389 55.21791992 204.93437988 55.88017578 204.5 56.5625 C203.8356897 57.61195801 203.8356897 57.61195801 203.15795898 58.68261719 C195.84967439 70.06053718 187.35999874 80.24619643 178 90 C177.41476562 90.6177832 176.82953125 91.23556641 176.2265625 91.87207031 C157.3666844 111.70037576 135.73443695 126.41192289 111 138 C109.41832031 138.76376953 109.41832031 138.76376953 107.8046875 139.54296875 C59.60382263 161.63009725 2.03362069 163.0996978 -47.8046875 145.62890625 C-76.44683792 134.74660848 -102.48699011 120.0771297 -124.46289062 98.50634766 C-126.06024911 96.94095663 -127.67769131 95.39824899 -129.296875 93.85546875 C-138.25896272 85.21457932 -146.79773753 75.86409374 -153 65 C-145.67665197 61.96624507 -138.25951214 59.34373274 -130.75 56.8125 C-119.54232223 52.97978139 -108.56781541 48.75289268 -97.66455078 44.12939453 C-94.95616193 42.98141883 -92.24210859 41.84764767 -89.52734375 40.71484375 C-79.64683831 36.56656029 -69.99155965 32.14516504 -60.46142578 27.25048828 C-57.50434157 25.7481886 -54.53216313 24.27799291 -51.55859375 22.80859375 C-37.46918296 15.83625382 -23.5383365 8.64605713 -9.80224609 0.99291992 C-5.98510684 -1.11007457 -4.33271849 -0.98201335 0 0 Z " fill="#00788A" transform="translate(262,357)"/>
<path d="M0 0 C0.77988281 0.28504395 1.55976563 0.57008789 2.36328125 0.86376953 C28.3321147 10.51006652 51.68420691 24.86554848 73.82714844 41.40478516 C76.04762328 43.03496298 78.30212069 44.60501711 80.5703125 46.16796875 C82.02616798 47.19513349 83.48190207 48.22247031 84.9375 49.25 C85.60628174 49.69674072 86.27506348 50.14348145 86.96411133 50.60375977 C91.97798215 54.21064042 93.75945283 57.98839083 95 64 C95.1875 67.0625 95.1875 67.0625 95 69 C90.01723137 70.45936113 85.01331668 71.75549494 79.9609375 72.953125 C78.40634257 73.32514627 76.85182052 73.69747218 75.29736328 74.07006836 C74.49365295 74.26245087 73.68994263 74.45483337 72.86187744 74.65304565 C39.97503198 82.5472607 7.81310726 92.51634096 -24 104 C-25.18078125 104.42474609 -26.3615625 104.84949219 -27.578125 105.28710938 C-48.1008961 112.69548195 -68.13259298 120.98683575 -88 130 C-88.62044189 130.28099548 -89.24088379 130.56199097 -89.88012695 130.85150146 C-100.98494399 135.88503766 -112.07874721 140.93246096 -122.90234375 146.55078125 C-124.00320313 147.11909668 -125.1040625 147.68741211 -126.23828125 148.27294922 C-128.31873655 149.35540833 -130.3909537 150.45390263 -132.453125 151.57080078 C-133.37480469 152.05145996 -134.29648437 152.53211914 -135.24609375 153.02734375 C-136.04716553 153.45781006 -136.8482373 153.88827637 -137.67358398 154.33178711 C-140.79909621 155.22952317 -142.14967662 154.45670508 -145 153 C-145.63309082 152.68498535 -146.26618164 152.3699707 -146.91845703 152.04541016 C-148.99092033 150.91152461 -151.06110667 149.77443945 -153.125 148.625 C-153.91704834 148.18438232 -154.70909668 147.74376465 -155.52514648 147.28979492 C-161.95490875 143.67056008 -168.18950447 139.79027999 -174.40332031 135.81494141 C-197.31225559 121.1907421 -220.87702642 107.51991814 -245 95 C-245 94.34 -245 93.68 -245 93 C-243.49731445 91.64990234 -243.49731445 91.64990234 -241.36328125 90.0859375 C-240.56913818 89.49796387 -239.77499512 88.90999023 -238.95678711 88.30419922 C-238.08417236 87.66756348 -237.21155762 87.03092773 -236.3125 86.375 C-234.4654125 85.01140946 -232.61908192 83.64679314 -230.7734375 82.28125 C-229.81663086 81.57484375 -228.85982422 80.8684375 -227.87402344 80.140625 C-224.23406594 77.42951836 -220.64107826 74.66039601 -217.04833984 71.88720703 C-207.43863787 64.48088913 -197.64690008 57.45066167 -187.55761719 50.71435547 C-184.80174517 48.86711098 -182.06085992 46.99880213 -179.3203125 45.12890625 C-146.7911207 23.03788761 -111.91458392 2.12502302 -73 -6 C-72.01257813 -6.22429687 -71.02515625 -6.44859375 -70.0078125 -6.6796875 C-46.82119159 -11.16940455 -22.01862446 -8.05571704 0 0 Z " fill="#8BA4D5" transform="translate(399,190)"/>
<path d="M0 0 C3.29190674 2.97444309 6.50448186 6.02746659 9.703125 9.1015625 C10.24855957 9.61976562 10.79399414 10.13796875 11.35595703 10.671875 C19.64195501 18.57117686 26.90763494 26.89484676 33.703125 36.1015625 C34.42000488 37.0598999 34.42000488 37.0598999 35.15136719 38.03759766 C57.73153538 68.36527906 72.84548186 102.90283547 79.703125 140.1015625 C79.86683594 140.97522461 80.03054688 141.84888672 80.19921875 142.74902344 C85.01152456 169.80332947 84.93291567 200.1268527 79.703125 227.1015625 C79.54215332 227.97200195 79.38118164 228.84244141 79.21533203 229.73925781 C70.88395196 273.70909651 50.5948843 315.5956392 19.703125 348.1015625 C18.48739991 349.4909626 17.27849889 350.88637841 16.078125 352.2890625 C9.75740497 359.52114216 2.91596295 365.84045716 -4.62890625 371.78417969 C-5.79991 372.70905326 -6.9661823 373.63993389 -8.12890625 374.57519531 C-23.88986066 387.23291571 -40.93405743 397.65106673 -59.296875 406.1015625 C-60.00569824 406.4310791 -60.71452148 406.7605957 -61.44482422 407.10009766 C-80.73268298 415.958194 -101.33403935 421.82418147 -122.296875 425.1015625 C-123.41408936 425.27816406 -124.53130371 425.45476562 -125.68237305 425.63671875 C-137.1575791 427.26885168 -148.53057102 427.50055726 -160.109375 427.4765625 C-161.09899231 427.47601868 -162.08860962 427.47547485 -163.10821533 427.47491455 C-179.14739416 427.43448916 -194.5813748 426.57087783 -210.296875 423.1015625 C-211.29219238 422.88193848 -212.28750977 422.66231445 -213.31298828 422.43603516 C-220.0486606 420.89673304 -226.68224926 419.09484445 -233.296875 417.1015625 C-234.1213916 416.85599609 -234.9459082 416.61042969 -235.79541016 416.35742188 C-257.16206633 409.84125797 -277.88964372 399.74392011 -296.296875 387.1015625 C-296.88678223 386.70404785 -297.47668945 386.3065332 -298.08447266 385.89697266 C-307.38724515 379.60652649 -315.91893155 372.56722483 -324.296875 365.1015625 C-324.84682129 364.61478027 -325.39676758 364.12799805 -325.96337891 363.62646484 C-332.16829318 358.11860697 -337.98798713 352.49273438 -343.296875 346.1015625 C-344.10382813 345.18246094 -344.91078125 344.26335937 -345.7421875 343.31640625 C-389.15444972 293.69563901 -408.26700815 228.85634336 -404.06982422 163.56982422 C-398.89015877 101.53259656 -369.43606989 41.77707402 -322.48828125 0.640625 C-319.79347105 -1.58875354 -317.0581514 -3.75206719 -314.296875 -5.8984375 C-312.82347656 -7.07986328 -312.82347656 -7.07986328 -311.3203125 -8.28515625 C-232.21451574 -71.22888475 -118.83632837 -76.56635136 0 0 Z M-323.296875 24.1015625 C-323.95300781 24.71515625 -324.60914063 25.32875 -325.28515625 25.9609375 C-338.962311 39.16646622 -349.96165503 55.62381377 -359.296875 72.1015625 C-359.6381543 72.69372559 -359.97943359 73.28588867 -360.33105469 73.89599609 C-389.82910718 125.34116419 -395.66305022 188.27929263 -380.296875 245.1015625 C-370.36062607 279.47493126 -353.95461281 309.32156796 -330.296875 336.1015625 C-329.8416748 336.61992676 -329.38647461 337.13829102 -328.91748047 337.67236328 C-299.65215523 370.84666269 -259.1924899 394.32138053 -216.484375 405.3515625 C-215.15490845 405.70275146 -215.15490845 405.70275146 -213.79858398 406.06103516 C-196.01990737 410.43091515 -177.98056795 411.68893745 -159.734375 411.6015625 C-158.73962158 411.59980011 -157.74486816 411.59803772 -156.7199707 411.59622192 C-131.72966514 411.49808068 -108.87268471 407.57782325 -85.296875 399.1015625 C-83.84789085 398.60088304 -82.39868362 398.10084858 -80.94921875 397.6015625 C-71.32929481 394.2146696 -62.28884613 389.89480331 -53.296875 385.1015625 C-52.62624023 384.74690918 -51.95560547 384.39225586 -51.26464844 384.02685547 C-23.58433926 369.28480293 1.67474986 348.02825297 20.41210938 322.83691406 C21.25319613 321.70634586 22.10057014 320.58041954 22.95507812 319.45996094 C41.27048176 295.44094903 53.15326168 268.21053792 60.703125 239.1015625 C60.91694824 238.28896973 61.13077148 237.47637695 61.35107422 236.63916016 C65.62800896 220.19827388 67.05603575 204.30177141 67.01879883 187.36035156 C67.01564452 184.3700693 67.03916687 181.38078549 67.06445312 178.390625 C67.10478798 166.00935622 66.06402418 154.25063885 63.703125 142.1015625 C63.56289413 141.35417313 63.42266327 140.60678375 63.27818298 139.83674622 C55.5258224 98.61059077 35.88456177 60.12384535 7.09765625 29.6484375 C5.15191682 27.57890715 3.31629542 25.4828712 1.515625 23.2890625 C-1.73171693 19.46380379 -5.47150198 16.33258005 -9.296875 13.1015625 C-10.21082031 12.28816406 -11.12476563 11.47476563 -12.06640625 10.63671875 C-25.42143683 -1.1554891 -40.52143136 -10.67842521 -56.296875 -18.8984375 C-57.00859863 -19.2706543 -57.72032227 -19.64287109 -58.45361328 -20.02636719 C-141.44551547 -62.80795421 -243.98100219 -46.92649416 -323.296875 24.1015625 Z " fill="#01788A" transform="translate(445.296875,115.8984375)"/>
<path d="M0 0 C0.7656121 6.13062453 1.15938114 12.11019955 1.16796875 18.28515625 C1.17129715 19.14451279 1.17462555 20.00386932 1.17805481 20.88926697 C1.18308513 22.69855216 1.18546435 24.5078465 1.18530273 26.31713867 C1.18747499 29.0312503 1.20563353 31.74494513 1.22460938 34.45898438 C1.28860477 54.16652875 -1.47570393 73.04696295 -7 92 C-7.20109375 92.75925781 -7.4021875 93.51851563 -7.609375 94.30078125 C-13.43445476 115.43445476 -13.43445476 115.43445476 -18 120 C-31.6468014 122.5297602 -45.54656696 122.34004629 -59.37207031 122.31567383 C-63.09730594 122.31252342 -66.82173743 122.33601881 -70.546875 122.36132812 C-84.77027956 122.39816029 -98.52575808 121.58072593 -112.57922363 119.37127686 C-115.01067354 118.99836299 -117.44431709 118.66988332 -119.8840332 118.35595703 C-157.07955736 113.56329911 -195.05455537 99.55093687 -228 82 C-228 81.34 -228 80.68 -228 80 C-64.72324055 0 -64.72324055 0 0 0 Z " fill="#4B63AE" transform="translate(497,269)"/>
<path d="M0 0 C3.13730724 0.86750735 5.66255347 1.96887032 8.51904297 3.5222168 C9.54924561 4.07844727 10.57944824 4.63467773 11.64086914 5.20776367 C12.73761963 5.81297852 13.83437012 6.41819336 14.96435547 7.04174805 C16.11331299 7.66887695 17.26227051 8.29600586 18.44604492 8.94213867 C41.7337504 21.69631776 64.43922002 35.49294045 86.90380859 49.63793945 C91.54778455 52.54969754 96.25847061 55.26627401 101.08935547 57.85424805 C101.08935547 58.51424805 101.08935547 59.17424805 101.08935547 59.85424805 C100.4921167 60.16539551 99.89487793 60.47654297 99.27954102 60.79711914 C97.47977282 61.73494653 95.68014384 62.67304109 93.88061523 63.61132812 C91.78124326 64.70568336 89.6814595 65.79924896 87.58129883 66.89208984 C82.85874341 69.3522963 78.13934383 71.81512718 73.45654297 74.3503418 C42.19000353 91.23448601 9.38180984 105.00689909 -24.16064453 116.66674805 C-25.35004639 117.08158447 -26.53944824 117.4964209 -27.76489258 117.92382812 C-33.15331018 119.75401239 -38.23086055 121.35357345 -43.91064453 121.85424805 C-48.31523393 115.59192113 -51.98915602 109.19847639 -55.28564453 102.29174805 C-55.75607178 101.30811279 -56.22649902 100.32447754 -56.71118164 99.31103516 C-70.91064453 68.79750096 -70.91064453 68.79750096 -70.91064453 53.85424805 C-68.63949104 51.87959777 -66.4329873 50.18897237 -63.97314453 48.47924805 C-62.4952557 47.41387432 -61.02008353 46.34472396 -59.54736328 45.2722168 C-58.78085449 44.71453613 -58.0143457 44.15685547 -57.22460938 43.58227539 C-53.47203363 40.77991929 -49.88005957 37.7926542 -46.28564453 34.79174805 C-41.21515004 30.5715992 -36.11866324 26.40367782 -30.91064453 22.35424805 C-24.70912386 17.52993642 -18.64058413 12.55295461 -12.59423828 7.53588867 C-11.57136719 6.68800781 -11.57136719 6.68800781 -10.52783203 5.82299805 C-9.92567871 5.32219727 -9.32352539 4.82139648 -8.703125 4.30541992 C-8.11160645 3.8265332 -7.52008789 3.34764648 -6.91064453 2.85424805 C-6.29979004 2.27739258 -5.68893555 1.70053711 -5.05957031 1.10620117 C-2.91064453 -0.14575195 -2.91064453 -0.14575195 0 0 Z " fill="#00788A" transform="translate(146.91064453125,291.145751953125)"/>
<path d="M0 0 C3.47797062 1.80100333 5.89597101 4.29143912 8.55078125 7.10546875 C11.71299138 10.4112238 14.89179029 13.59245378 18.375 16.5625 C24.69750181 22.01890567 30.45701362 28.08120321 36.3203125 34.02050781 C41.75334751 39.51757983 47.18197488 44.94753067 53.06640625 49.96875 C56.24485342 52.7238993 59.1187835 55.78172781 62.05078125 58.79296875 C64.81650285 61.49437124 67.69056302 64.01662446 70.61035156 66.54833984 C74.1891002 69.69267865 77.64978321 72.9602896 81.11328125 76.23046875 C81.85570068 76.92970459 82.59812012 77.62894043 83.36303711 78.34936523 C88.12456283 82.84916024 92.80383551 87.40800102 97.3671875 92.109375 C99.31874508 94.00949119 101.30115259 95.77628516 103.3671875 97.546875 C108.54174103 102.03623296 113.30711315 106.91622549 118.11328125 111.79296875 C119.88962265 113.59472276 121.66815464 115.39432058 123.44921875 117.19140625 C124.22571777 117.97950684 125.0022168 118.76760742 125.80224609 119.57958984 C127.61054082 121.47559216 127.61054082 121.47559216 129.73828125 122.41796875 C129.67148666 121.62641388 129.60469208 120.83485901 129.53587341 120.01931763 C128.80565526 110.71639062 128.50125752 101.44559761 128.32328987 92.11846542 C128.272133 89.46755787 128.21557767 86.81681237 128.15757751 84.16604614 C127.9934796 76.64031125 127.83589591 69.11446447 127.6887207 61.58837891 C127.59774543 56.9555 127.49820969 52.32286791 127.39346123 47.69028091 C127.35558186 45.94188178 127.32086907 44.19341071 127.28956795 42.44488144 C127.99811293 26.37951087 127.99811293 26.37951087 122.84999084 12.16256714 C119.20348081 9.14998646 115.62921191 9.17278573 111.05078125 8.85546875 C109.87128906 8.77167969 108.69179687 8.68789062 107.4765625 8.6015625 C106.57292969 8.54097656 105.66929687 8.48039063 104.73828125 8.41796875 C104.17578125 6.48046875 104.17578125 6.48046875 103.73828125 4.41796875 C104.73828125 3.41796875 104.73828125 3.41796875 107.17433167 3.29771423 C108.79648842 3.30104515 108.79648842 3.30104515 110.45141602 3.30444336 C111.67260635 3.30451889 112.89379669 3.30459442 114.1519928 3.30467224 C115.49455811 3.30977964 116.837123 3.31499564 118.1796875 3.3203125 C119.54589283 3.32217676 120.91209882 3.32360062 122.27830505 3.32460022 C125.8802982 3.32842481 129.48225125 3.33825458 133.08422852 3.3493042 C136.7573187 3.35951959 140.43041534 3.36409811 144.10351562 3.36914062 C151.31512248 3.37987691 158.52669625 3.39695261 165.73828125 3.41796875 C166.06828125 4.40796875 166.39828125 5.39796875 166.73828125 6.41796875 C164.26497868 8.89127132 163.27596102 8.71543583 159.86328125 8.91796875 C154.95063176 9.16440843 154.95063176 9.16440843 150.73828125 11.41796875 C147.2799625 18.52566471 147.22580626 25.19729741 147.11328125 33.0078125 C147.08252654 34.43263731 147.05057846 35.85743674 147.01757812 37.2822113 C146.92663462 41.39439259 146.85514218 45.50674019 146.78649902 49.61934662 C146.71738249 53.63095993 146.63829485 57.64236285 146.55984497 61.65380287 C146.2169135 79.21507674 145.91118538 96.77702266 145.61328125 114.33911133 C145.51200419 120.2970184 145.40657895 126.25484041 145.29858398 132.21262932 C145.25871468 134.45839606 145.22043871 136.70419172 145.18383789 138.95001411 C145.13296306 142.06775129 145.07682366 145.1853536 145.01953125 148.30297852 C145.00599609 149.21355011 144.99246094 150.1241217 144.97851562 151.06228638 C144.69639486 165.45985514 144.69639486 165.45985514 142.73828125 167.41796875 C136.33098603 167.24372834 133.57559713 165.12548153 129.30078125 160.79296875 C128.24079261 159.75787477 127.17957829 158.72403457 126.1171875 157.69140625 C125.30399048 156.89198608 125.30399048 156.89198608 124.47436523 156.07641602 C121.98147947 153.69501073 119.37162096 151.4567114 116.7668457 149.19921875 C113.45309188 146.28946452 110.25546449 143.25922428 107.05078125 140.23046875 C105.6423055 138.90454583 104.23344647 137.57902994 102.82421875 136.25390625 C102.13295898 135.60389648 101.44169922 134.95388672 100.72949219 134.28417969 C97.89272431 131.62549238 95.03668087 128.98813829 92.17578125 126.35546875 C87.48990621 122.04248274 82.82733779 117.7054428 78.17578125 113.35546875 C73.71708611 109.18673321 69.24361897 105.03627075 64.73828125 100.91796875 C62.73724489 99.08575212 60.73710271 97.2525986 58.73828125 95.41796875 C58.20730331 94.93088943 57.67632538 94.44381012 57.1292572 93.94197083 C46.58081869 84.2421819 36.40304061 74.20446251 26.30078125 64.04296875 C24.77953534 62.51668937 23.25805208 60.99064652 21.73632812 59.46484375 C18.06758396 55.78525973 14.40201972 52.10253666 10.73828125 48.41796875 C10.97949206 57.53882222 11.22285808 66.65961517 11.46877193 75.78034306 C11.58296913 80.01816818 11.6964989 84.25600872 11.80834961 88.49389648 C12.06147711 98.069285 12.32775331 107.64413624 12.6149292 117.21856689 C12.69373509 119.85924433 12.76618078 122.49980701 12.83428955 125.14080811 C12.91614173 128.29492489 13.01394014 131.44808559 13.1171875 134.6015625 C13.14485451 135.89018944 13.14485451 135.89018944 13.17308044 137.20484924 C13.55173612 148.10423734 13.55173612 148.10423734 18.61573792 157.18943787 C21.73158587 158.99289477 24.97176123 159.24318077 28.48828125 159.60546875 C29.53435547 159.72825195 29.53435547 159.72825195 30.6015625 159.85351562 C32.31254901 160.05274008 34.02528162 160.23686804 35.73828125 160.41796875 C36.06828125 161.73796875 36.39828125 163.05796875 36.73828125 164.41796875 C33.54829699 165.48129684 31.27349853 165.54483126 27.92163086 165.54736328 C26.72706772 165.55051544 25.53250458 165.5536676 24.30174255 165.55691528 C23.01107376 165.55489105 21.72040497 165.55286682 20.390625 165.55078125 C19.05448896 165.55145486 17.71835303 165.55242537 16.38221741 165.55368042 C13.5838199 165.55515419 10.78545434 165.5530128 7.98706055 165.54833984 C4.39674563 165.54263721 0.80650539 165.54592694 -2.7838068 165.55191231 C-5.54183009 165.55552187 -8.2998356 165.55437761 -11.05785942 165.55178452 C-13.02661564 165.55079147 -14.99537254 165.55383241 -16.96412659 165.55691528 C-18.15553757 165.55376312 -19.34694855 165.55061096 -20.57446289 165.54736328 C-21.62686661 165.54656769 -22.67927032 165.54577209 -23.76356506 165.54495239 C-26.26171875 165.41796875 -26.26171875 165.41796875 -28.26171875 164.41796875 C-27.76671875 162.43796875 -27.76671875 162.43796875 -27.26171875 160.41796875 C-26.28589844 160.29679688 -25.31007813 160.175625 -24.3046875 160.05078125 C-23.03238281 159.88320313 -21.76007813 159.715625 -20.44921875 159.54296875 C-19.18464844 159.38054687 -17.92007812 159.218125 -16.6171875 159.05078125 C-13.14472558 158.62228422 -13.14472558 158.62228422 -10.26171875 156.41796875 C-7.60502791 149.94929726 -7.83242878 143.14025162 -7.66796875 136.23461914 C-7.63094849 134.9535859 -7.59392822 133.67255266 -7.55578613 132.35270023 C-7.21966665 120.23417394 -6.99667461 108.11307449 -6.81616211 95.9913311 C-6.75987509 92.22830604 -6.69973151 88.46535834 -6.63867188 84.70240784 C-6.47712222 74.71191431 -6.32068642 64.7213439 -6.16796112 54.730712 C-6.05681249 47.46086166 -5.94144773 40.19109369 -5.82202148 32.92137337 C-5.78198313 30.4266848 -5.74371974 27.93196709 -5.70727539 25.43722343 C-5.65670656 21.97816837 -5.60047958 18.51924832 -5.54296875 15.06030273 C-5.52943359 14.03555847 -5.51589844 13.01081421 -5.50195312 11.95501709 C-5.48519531 11.0153862 -5.4684375 10.07575531 -5.45117188 9.10765076 C-5.43237976 7.88654429 -5.43237976 7.88654429 -5.41320801 6.640769 C-5.26206078 4.42298733 -4.9899448 2.51941236 -4.26171875 0.41796875 C-2.26171875 -0.58203125 -2.26171875 -0.58203125 0 0 Z " fill="#FFFFFF" transform="translate(1214.26171875,216.58203125)"/>
<path d="M0 0 C10.54548143 -0.06995143 21.09090635 -0.1230381 31.63657379 -0.15543652 C36.53498107 -0.17099732 41.43322796 -0.19205721 46.33154297 -0.22631836 C51.0713302 -0.2592578 55.81096455 -0.27692478 60.55085754 -0.28463173 C62.34628196 -0.2901139 64.14169938 -0.3008162 65.9370575 -0.31719017 C83.46358053 -0.47046907 103.81397963 0.13227427 117.25 12.98046875 C126.10187555 23.1956912 127.8747216 33.78198477 127 47 C124.19599444 64.15391634 110.40863696 76.09895444 98 87 C99.03447266 88.10794922 99.03447266 88.10794922 100.08984375 89.23828125 C105.52527376 95.09414201 110.73187525 101.04827177 115.74609375 107.2734375 C118.92656901 111.12087551 122.29360035 114.78341664 125.671875 118.45703125 C127.60694262 120.57067054 129.50208297 122.70659848 131.375 124.875 C132.58178621 126.25135805 133.79034614 127.62616159 135 129 C135.41975098 129.48227051 135.83950195 129.96454102 136.27197266 130.46142578 C149.07721282 145.10171254 161.24216726 154.41993937 181 157 C181 158.32 181 159.64 181 161 C179.07689295 162.92310705 175.5073609 162.16380795 172.88671875 162.16796875 C172.16192825 162.17129715 171.43713776 162.17462555 170.69038391 162.17805481 C169.14605342 162.18313331 167.60171188 162.18546285 166.05737305 162.18530273 C163.73531827 162.18745566 161.41376529 162.20550567 159.09179688 162.22460938 C139.4153985 162.30015705 127.07499162 158.88599175 112.75390625 144.7890625 C106.8578988 138.4495022 101.7040808 131.50999156 96.4921875 124.609375 C92.85085688 119.78880868 89.1500589 115.01582597 85.4375 110.25 C84.85395752 109.49976563 84.27041504 108.74953125 83.66918945 107.9765625 C82.5872363 106.58721655 81.49977923 105.20213174 80.40576172 103.82226562 C79.21568274 102.27958596 78.11443196 100.66900708 77.03515625 99.046875 C72.83138365 94.81889642 64.83593084 95.73928173 59.0625 95.4375 C57.89364258 95.37272461 57.89364258 95.37272461 56.70117188 95.30664062 C54.80092883 95.20171923 52.90048331 95.1004755 51 95 C51.09292186 101.51066313 51.20030538 108.02097683 51.31738281 114.53125 C51.35548484 116.74245907 51.39036921 118.95372617 51.421875 121.16503906 C51.46793585 124.35763175 51.52585998 127.54983139 51.5859375 130.7421875 C51.59748871 131.71864227 51.60903992 132.69509705 51.62094116 133.70114136 C51.76227235 143.02674365 51.76227235 143.02674365 54 152 C57.63261832 155.4369437 61.4454666 155.72487267 66.25 156.1875 C67.36761719 156.3102832 67.36761719 156.3102832 68.5078125 156.43554688 C70.33735356 156.63491994 72.16855151 156.81898474 74 157 C74 158.32 74 159.64 74 161 C72.15394613 162.84605387 69.14612629 162.12775654 66.67602539 162.12939453 C65.68576103 162.13202301 65.68576103 162.13202301 64.67549133 162.13470459 C62.48285326 162.1391228 60.29029521 162.13618491 58.09765625 162.1328125 C56.57929977 162.13348563 55.06094339 162.13445573 53.54258728 162.13571167 C50.35561093 162.13718866 47.16866256 162.13503434 43.98168945 162.13037109 C39.89135284 162.12467863 35.80108191 162.12794972 31.71074772 162.13394356 C28.57355757 162.13755326 25.43638304 162.13640861 22.29919243 162.13381577 C20.79086741 162.13314738 19.28254098 162.13397185 17.77421761 162.13629532 C15.66722979 162.138828 13.56034897 162.13497233 11.45336914 162.12939453 C9.65253624 162.12820114 9.65253624 162.12820114 7.81532288 162.12698364 C5 162 5 162 3 161 C3 159.68 3 158.36 3 157 C3.90363281 156.89042969 4.80726562 156.78085937 5.73828125 156.66796875 C6.91777344 156.50941406 8.09726563 156.35085938 9.3125 156.1875 C10.48425781 156.03667969 11.65601563 155.88585937 12.86328125 155.73046875 C16.17474603 154.95930572 16.93462429 154.54581752 19 152 C21.71685428 145.16715427 21.29001193 137.44840762 21.2746582 130.23168945 C21.27976913 128.98180237 21.28488007 127.73191528 21.29014587 126.44415283 C21.30160566 123.04141796 21.30412543 119.63892788 21.30158257 116.23619103 C21.30050752 113.38810984 21.30540932 110.54005076 21.310188 107.69197434 C21.32124919 100.97326203 21.32173839 94.25460566 21.31567383 87.53588867 C21.30962317 80.61534356 21.32198035 73.69500119 21.3432439 66.77449065 C21.36087055 60.81756369 21.36685997 54.86070124 21.36360615 48.90374917 C21.36179637 45.35229888 21.3643998 41.80099358 21.37832069 38.24956703 C21.3932529 34.29300608 21.38391962 30.33670333 21.37231445 26.38012695 C21.37995819 25.20959274 21.38760193 24.03905853 21.39547729 22.83305359 C21.36516515 14.98739711 21.36516515 14.98739711 18 8 C13.46667572 5.62000475 8.42477117 5.58307894 3.390625 5.24609375 C1 5 1 5 -1 4 C-0.67 2.68 -0.34 1.36 0 0 Z M51 12 C51 35.1 51 58.2 51 82 C57.49604513 83.85601289 62.33375051 84.39736918 68.9375 84.4375 C70.36352539 84.48680664 70.36352539 84.48680664 71.81835938 84.53710938 C79.47718729 84.59517079 84.1989581 82.57206985 89.75488281 77.35083008 C97.46424824 69.41864334 99.29328664 58.66842851 99.31689453 48.01733398 C99.11886298 37.89694383 96.20807567 28.30842011 89 21 C79.79052215 12.31677803 69.62312261 10.42869496 57.40625 10.76171875 C54.01413017 10.85681532 54.01413017 10.85681532 51 12 Z " fill="#FFFFFF" transform="translate(1737,220)"/>
<path d="M0 0 C-0.40387737 4.23634304 -0.81292793 8.47214466 -1.22680664 12.70751953 C-1.36690738 14.1487876 -1.50558678 15.59019456 -1.64282227 17.03173828 C-1.8401853 19.1022689 -2.04263361 21.17224825 -2.24609375 23.2421875 C-2.36654053 24.4885498 -2.4869873 25.73491211 -2.61108398 27.01904297 C-3 30 -3 30 -4 32 C-5.65 31.67 -7.3 31.34 -9 31 C-9.09796875 30.32453125 -9.1959375 29.6490625 -9.296875 28.953125 C-10.19732499 23.42877289 -10.19732499 23.42877289 -12.6875 18.5 C-19.20263991 14.2739633 -26.77079429 14.59031906 -34.27734375 14.3671875 C-35.31217896 14.32988525 -36.34701416 14.29258301 -37.41320801 14.25415039 C-41.25431338 14.11823933 -45.09594375 13.99750664 -48.9375 13.875 C-57.538125 13.58625 -66.13875 13.2975 -75 13 C-74.67 31.81 -74.34 50.62 -74 70 C-66.5476944 69.93233661 -59.09634122 69.86188712 -51.64451599 69.7644577 C-48.17400331 69.71988553 -44.70360889 69.68043253 -41.23291016 69.65356445 C-37.24616608 69.62246237 -33.25991324 69.56767551 -29.2734375 69.51171875 C-27.41687027 69.50213387 -27.41687027 69.50213387 -25.52279663 69.49235535 C-18.51410043 69.37283676 -13.19939673 69.19939673 -8 64 C-5.875 64.375 -5.875 64.375 -4 65 C-4.31079637 68.95846899 -4.62395307 72.91674801 -4.9375 76.875 C-5.02451172 77.98359375 -5.11152344 79.0921875 -5.20117188 80.234375 C-5.72507761 86.83170649 -6.30829304 93.41807779 -7 100 C-8.9375 100.5625 -8.9375 100.5625 -11 101 C-12.68086566 99.31913434 -12.44536084 96.9875257 -12.75 94.6875 C-13.54487633 90.03860163 -13.54487633 90.03860163 -16.5 86.375 C-27.1461161 80.51963614 -43.36902844 82.69130784 -55.3125 82.4375 C-57.2285229 82.39420096 -59.14453863 82.35058352 -61.06054688 82.30664062 C-65.70695685 82.20075994 -70.35344226 82.09917504 -75 82 C-74.89257473 90.31010784 -74.77995699 98.62012197 -74.66066074 106.93006706 C-74.60543434 110.78847246 -74.55201481 114.64688544 -74.50268555 118.50537109 C-74.45503779 122.22718122 -74.40269486 125.94889809 -74.34705925 129.67059708 C-74.32663755 131.09237478 -74.30792415 132.51417806 -74.29092598 133.93600082 C-74.26687819 135.92337631 -74.23626002 137.91066905 -74.20532227 139.89794922 C-74.18977798 141.03046112 -74.1742337 142.16297302 -74.15821838 143.32980347 C-74.17732998 145.97327793 -74.17732998 145.97327793 -73 148 C-65.90928051 150.57762124 -58.62716049 150.2703168 -51.17626953 150.20581055 C-49.03275311 150.18777558 -46.88967758 150.18530009 -44.74609375 150.18554688 C-25.09163884 151.18981536 -25.09163884 151.18981536 -7 146 C-2.60711604 141.27347928 -0.7356749 135.09602893 1 129 C2.32 129.33 3.64 129.66 5 130 C5.35490524 137.55816724 4.94956765 144.67951929 3.6875 152.125 C3.51093872 153.22606079 3.51093872 153.22606079 3.33081055 154.34936523 C2.63607854 158.1652797 2.1595995 160.65391069 -1 163 C-3.26887608 163.3719368 -3.26887608 163.3719368 -5.97889709 163.36749268 C-7.5205378 163.37584641 -7.5205378 163.37584641 -9.09332275 163.3843689 C-10.78361603 163.37054672 -10.78361603 163.37054672 -12.50805664 163.35644531 C-14.28879829 163.35951187 -14.28879829 163.35951187 -16.10551453 163.36264038 C-19.36170999 163.36513523 -22.61752665 163.35423644 -25.87366796 163.33711338 C-29.27868079 163.32208479 -32.68368941 163.3232516 -36.08872986 163.32244873 C-41.80603431 163.31875583 -47.52321873 163.30378657 -53.24047852 163.28125 C-60.58390083 163.25236272 -67.92722654 163.24202551 -75.2706995 163.2375679 C-81.57877626 163.23359053 -87.88683193 163.22108914 -94.1948936 163.20722103 C-96.22537294 163.20311951 -98.25585153 163.20019519 -100.28633308 163.19742584 C-104.06470721 163.19058138 -107.84299207 163.17695784 -111.62133789 163.16113281 C-112.7502243 163.16001495 -113.87911072 163.15889709 -115.04220581 163.15774536 C-116.06714645 163.15203522 -117.0920871 163.14632507 -118.14808655 163.14044189 C-119.04201646 163.13746723 -119.93594637 163.13449257 -120.85696507 163.13142776 C-123 163 -123 163 -125 162 C-125 160.68 -125 159.36 -125 158 C-124.09636719 157.89042969 -123.19273437 157.78085937 -122.26171875 157.66796875 C-121.08222656 157.50941406 -119.90273438 157.35085938 -118.6875 157.1875 C-117.51574219 157.03667969 -116.34398437 156.88585937 -115.13671875 156.73046875 C-111.30481158 155.89308614 -111.30481158 155.89308614 -109 153 C-107.38919956 147.42857043 -106.6172667 142.23752939 -106.38330078 136.45678711 C-106.34570208 135.64086814 -106.30810337 134.82494917 -106.26936531 133.98430538 C-105.83442224 123.55730213 -105.85563966 113.12550238 -105.8671875 102.69140625 C-105.86651161 100.50528452 -105.86553923 98.31916286 -105.86428833 96.13304138 C-105.86282692 91.58909375 -105.86491668 87.04516599 -105.86962891 82.5012207 C-105.87534923 76.70622728 -105.87202273 70.91127996 -105.86605644 65.11628819 C-105.86242886 60.6164872 -105.86359909 56.116697 -105.86618423 51.61689568 C-105.86684619 49.48046806 -105.86605098 47.34403942 -105.86370468 45.20761299 C-104.56273254 26.2544181 -104.56273254 26.2544181 -110 9 C-114.55785426 6.44636349 -119.24906829 6.67758384 -124.35546875 6.5390625 C-127 6 -127 6 -128.36328125 3.9609375 C-128.57339844 3.31382812 -128.78351562 2.66671875 -129 2 C-128 1 -128 1 -124.03244019 0.88647461 C-122.21416468 0.88662457 -120.39588508 0.8924067 -118.57763672 0.90234375 C-117.58721375 0.90380402 -116.59679077 0.90526428 -115.57635498 0.9067688 C-113.4150226 0.91058693 -111.2536934 0.91671607 -109.09237289 0.92483521 C-105.66046272 0.93757134 -102.22859114 0.94410903 -98.79666138 0.94897461 C-90.25846384 0.96236975 -81.72030214 0.986386 -73.18212891 1.01037598 C-65.99180424 1.0302163 -58.80149396 1.04582217 -51.61114883 1.05593872 C-48.2508208 1.06236399 -44.89055193 1.07488067 -41.53024292 1.08764648 C-23.80417039 1.4463759 -23.80417039 1.4463759 -6.2507019 -0.56225586 C-3.80569295 -1.03779122 -2.33988107 -0.77996036 0 0 Z " fill="#FFFFFF" transform="translate(1073,219)"/>
<path d="M0 0 C1 1 1 1 1.03759766 4.12353516 C1.00199962 5.51219854 0.96036352 6.90071476 0.9140625 8.2890625 C0.89282318 9.02571136 0.87158386 9.76236023 0.84970093 10.52133179 C0.80332855 12.0867252 0.75439184 13.65204439 0.703125 15.21728516 C0.62600831 17.59392511 0.5584478 19.97069173 0.4921875 22.34765625 C0.44589031 23.86980935 0.39903251 25.39194552 0.3515625 26.9140625 C0.33171295 27.61850494 0.3118634 28.32294739 0.29141235 29.04873657 C0.14101103 33.44240297 -0.30837995 37.66730772 -1 42 C-3.475 42.495 -3.475 42.495 -6 43 C-6.32871094 41.40671875 -6.32871094 41.40671875 -6.6640625 39.78125 C-8.89916484 29.56812434 -11.27500112 22.34849915 -19.875 15.8125 C-37.91206354 4.7429309 -63.25201449 3.76039613 -83.4375 8.1875 C-97.75772383 12.34756502 -108.26146019 20.07865707 -116.2109375 32.66796875 C-127.16879681 53.07638358 -127.44352149 77.64873438 -120.96875 99.4765625 C-114.58414514 117.55189653 -101.76921185 131.11546794 -85 140 C-80.74124676 141.94658732 -76.47129945 143.6117786 -72 145 C-70.23849609 145.54914063 -70.23849609 145.54914063 -68.44140625 146.109375 C-62.64031446 147.50999524 -56.74672261 147.32895652 -50.8125 147.3125 C-49.66974609 147.32861328 -48.52699219 147.34472656 -47.34960938 147.36132812 C-34.62661305 147.36852032 -21.65468529 145.53666151 -12.2265625 136.25390625 C-7.81138363 130.8638021 -5.43486159 124.46423431 -3 118 C-1.68 118 -0.36 118 1 118 C2.59732573 124.00021077 1.34743753 129.40006233 0.25 135.375 C0.07984375 136.37789062 -0.0903125 137.38078125 -0.265625 138.4140625 C-2.92916975 153.37691683 -2.92916975 153.37691683 -7.0234375 156.5859375 C-13.93551896 158.9052738 -20.7560264 160.19227994 -28 161 C-28.99515625 161.11214844 -29.9903125 161.22429687 -31.015625 161.33984375 C-64.27282076 164.45237617 -101.97940707 161.32609466 -129.25 140.125 C-145.57480475 126.34019729 -156.18610682 109.43144419 -159 88 C-160.13523681 74.5086067 -159.36270944 61.8449609 -155 49 C-154.45666016 47.38738281 -154.45666016 47.38738281 -153.90234375 45.7421875 C-151.08070416 38.26245137 -146.98109811 32.21194861 -142 26 C-141.18402344 24.93652344 -141.18402344 24.93652344 -140.3515625 23.8515625 C-125.86657617 5.97496961 -102.17531806 -2.66865135 -80.01953125 -5.4609375 C-53.68073658 -8.18146069 -25.7078331 -6.21179082 0 0 Z " fill="#FFFFFF" transform="translate(818,223)"/>
<path d="M0 0 C1.91601562 0.23999023 1.91601562 0.23999023 4 1 C9.05185104 7.81157915 12.14311803 15.69797236 15.5 23.4375 C16.14776668 24.91820124 16.79589036 26.39874634 17.44433594 27.87915039 C23.57393168 41.90492985 29.57035095 55.98845954 35.58599854 70.06335449 C42.1030239 85.30664684 48.6885134 100.5177463 55.375 115.6875 C55.76369263 116.57243134 56.15238525 117.45736267 56.55285645 118.36911011 C65.13183822 141.73340247 65.13183822 141.73340247 81.19140625 159.17578125 C86.30920988 161.05379267 91.59265203 161.5708454 97 162 C97 163.32 97 164.64 97 166 C93.17464668 167.27511777 89.57521516 167.14285896 85.58984375 167.1328125 C84.32848351 167.13424759 84.32848351 167.13424759 83.04164124 167.13571167 C81.25196254 167.13639305 79.46228139 167.13454171 77.67260742 167.13037109 C74.99977661 167.1251223 72.32712173 167.13026445 69.65429688 167.13671875 C58.40358129 167.1406349 47.22519661 166.75159938 36 166 C36 164.68 36 163.36 36 162 C37.65 161.67 39.3 161.34 41 161 C36.81737506 148.14654527 31.63145123 135.75725935 26.31958008 123.33959961 C26.03567917 122.67274139 25.75177826 122.00588318 25.45927429 121.31881714 C24.67539326 119.47885385 23.88690035 117.64085736 23.09814453 115.80297852 C22 113 22 113 22 111 C4.51 111.33 -12.98 111.66 -31 112 C-33.26875 117.465625 -35.5375 122.93125 -37.875 128.5625 C-38.58769043 130.27381104 -39.30038086 131.98512207 -40.03466797 133.74829102 C-40.60414368 135.12503766 -41.17333545 136.5019018 -41.7421875 137.87890625 C-42.03424072 138.57721558 -42.32629395 139.2755249 -42.62719727 139.99499512 C-45.46162792 146.87602784 -47 152.39570742 -47 160 C-42.05 160.66 -37.1 161.32 -32 162 C-32.33 163.65 -32.66 165.3 -33 167 C-52.14 167 -71.28 167 -91 167 C-91.66 165.68 -92.32 164.36 -93 163 C-91.12213733 161.12213733 -87.83718613 161.46977943 -85.3125 161.1875 C-78.28886302 160.21773895 -74.81123779 159.17494817 -70.08276367 153.8347168 C-67.67661783 150.55986516 -65.97428253 147.13765035 -64.30078125 143.45703125 C-63.9583992 142.7162886 -63.61601715 141.97554596 -63.26325989 141.21235657 C-59.08281051 132.10563631 -55.13555018 122.89661162 -51.1875 113.6875 C-50.36057556 111.76476121 -49.53333871 109.84215676 -48.70581055 107.91967773 C-46.99114663 103.93557484 -45.2778075 99.95090629 -43.56542969 95.96582031 C-41.08314892 90.19090511 -38.59378283 84.41906922 -36.1015625 78.6484375 C-35.70357956 77.72686356 -35.30559662 76.80528961 -34.89555359 75.85578918 C-32.91392473 71.26790594 -30.9312025 66.68049709 -28.94750977 62.09350586 C-25.46837114 54.04630547 -21.99410249 45.99729147 -18.55308533 37.93370056 C-17.09249649 34.5122427 -15.62720023 31.09281075 -14.16146851 27.67355347 C-13.48084955 26.08207586 -12.80257091 24.48959494 -12.12686157 22.89602661 C-4.19687195 4.19687195 -4.19687195 4.19687195 0 0 Z M-5 46 C-9.08312244 55.68058975 -13.14810153 65.3686002 -17.19250488 75.06542969 C-17.93258245 76.83848325 -18.67468602 78.61069081 -19.41699219 80.3828125 C-20.58007251 83.16772872 -21.7303314 85.95747671 -22.875 88.75 C-23.21402344 89.55727539 -23.55304687 90.36455078 -23.90234375 91.19628906 C-25.77533924 95.50186625 -25.77533924 95.50186625 -25 100 C-11.14 100 2.72 100 17 100 C14.76191938 92.36283998 14.76191938 92.36283998 12.13061523 84.93334961 C11.79694443 84.07644028 11.46327362 83.21953094 11.11949158 82.33665466 C10.76939529 81.45083206 10.41929901 80.56500946 10.05859375 79.65234375 C9.69024918 78.71443497 9.3219046 77.77652618 8.94239807 76.81019592 C8.17049663 74.84895023 7.39646004 72.88854363 6.62036133 70.92895508 C5.42953455 67.91735539 4.25065281 64.90125105 3.07226562 61.88476562 C2.31842636 59.97367495 1.56389431 58.06285737 0.80859375 56.15234375 C0.45647324 55.24830307 0.10435272 54.34426239 -0.25843811 53.41282654 C-0.58895676 52.58428665 -0.9194754 51.75574677 -1.26000977 50.90209961 C-1.69277977 49.80483803 -1.69277977 49.80483803 -2.1342926 48.68540955 C-2.88782461 46.80972195 -2.88782461 46.80972195 -5 46 Z " fill="#FFFFFF" transform="translate(2097,215)"/>
<path d="M0 0 C2.81788378 0.3130982 5.50739487 0.88972362 8.27133179 1.50846863 C22.00318938 3.9820705 36.56892944 3.16322353 50.4609375 3.16796875 C52.70423401 3.17119167 54.94753032 3.17455647 57.19082642 3.17805481 C61.86875902 3.1840048 66.54667326 3.1858989 71.22460938 3.18530273 C77.17046638 3.18520113 83.11620395 3.19887062 89.0620327 3.21607494 C93.68818689 3.22727888 98.31431292 3.22921941 102.94047928 3.22869301 C105.13056476 3.22985985 107.32065128 3.23420715 109.51072311 3.24202538 C120.65519324 3.27810189 131.58848432 3.15816872 142.63306236 1.52395153 C144.41314937 1.27447275 146.20702467 1.12723554 148 1 C150 3 150 3 150.13525391 6.07275391 C150.08288574 7.36101074 150.03051758 8.64926758 149.9765625 9.9765625 C149.95153656 10.66181 149.92651062 11.3470575 149.90072632 12.05307007 C149.81847691 14.2442131 149.72190952 16.43446111 149.625 18.625 C149.56676528 20.1093383 149.50946189 21.59371346 149.453125 23.078125 C149.31289242 26.71923974 149.15981249 30.3596862 149 34 C146.525 34.495 146.525 34.495 144 35 C143.85304688 34.25234375 143.70609375 33.5046875 143.5546875 32.734375 C142.176769 26.42767546 142.176769 26.42767546 138.3125 21.4375 C126.70201617 16.39898815 113.75984202 16.83111735 101.3125 16.4375 C100.02666016 16.39431641 98.74082031 16.35113281 97.41601562 16.30664062 C94.27742506 16.20163202 91.13876996 16.09947595 88 16 C88.08419127 31.92588635 88.17942956 47.85166679 88.28752708 63.77740669 C88.33747519 71.17336115 88.3839188 78.5693055 88.421875 85.96533203 C88.45499823 92.41783777 88.49493863 98.87026072 88.54279006 105.32267463 C88.56785493 108.73360705 88.58969302 112.14448599 88.60334396 115.55548477 C88.62036966 119.37971919 88.64944268 123.20369486 88.68115234 127.02783203 C88.68331253 128.13698975 88.68547272 129.24614746 88.68769836 130.38891602 C88.25000475 143.74814769 88.25000475 143.74814769 92.35422325 155.82823372 C97.93672693 159.80288555 106.41704283 159.54016108 113 160 C113 161.32 113 162.64 113 164 C110.11549763 165.44225118 107.61790774 165.13527554 104.39477539 165.14526367 C103.71655228 165.14862228 103.03832916 165.1519809 102.33955383 165.15544128 C100.09223613 165.16495871 97.84499287 165.16689476 95.59765625 165.16796875 C94.03828399 165.1711807 92.47891203 165.17454472 90.91954041 165.17805481 C87.64858298 165.184048 84.37765198 165.18589451 81.10668945 165.18530273 C76.91217981 165.18520108 72.71783932 165.19885561 68.52336979 165.21607494 C65.3020703 165.22718486 62.08081185 165.22922226 58.85949516 165.22869301 C57.31291559 165.22987456 55.76633501 165.23430612 54.21977425 165.24202538 C52.05793479 165.25180541 49.89646434 165.24895533 47.73461914 165.24291992 C45.88834679 165.24505745 45.88834679 165.24505745 44.004776 165.24723816 C41 165 41 165 38 163 C38.33 162.01 38.66 161.02 39 160 C46.425 159.01 46.425 159.01 54 158 C56.70244818 148.54143137 57.15685497 140.19180401 57.20532227 130.43359375 C57.21522186 129.19372208 57.22512146 127.9538504 57.23532104 126.67640686 C57.26137716 123.29889444 57.2832928 119.92140398 57.30332303 116.54385376 C57.32529915 113.00577341 57.35263056 109.4677344 57.37937927 105.9296875 C57.42914987 99.2399004 57.47414621 92.55009016 57.51740164 85.8602581 C57.56690825 78.23987589 57.62177628 70.61953518 57.67708123 62.99919319 C57.79066106 47.33283388 57.89755166 31.6664363 58 16 C51.89776969 16.21297965 45.796536 16.4434694 39.69555664 16.68969727 C37.62314558 16.77092712 35.55054622 16.84749991 33.4777832 16.91918945 C30.48586507 17.02350014 27.49504073 17.14494687 24.50390625 17.26953125 C23.12991417 17.3119268 23.12991417 17.3119268 21.72816467 17.35517883 C15.50761913 17.63654795 7.95154902 18.00023724 3.35035706 22.67658997 C0.94575267 25.84775264 -0.73942827 29.21828481 -2 33 C-3.65 32.67 -5.3 32.34 -7 32 C-6.71104113 24.63154892 -5.63570224 17.56370018 -4.0625 10.375 C-3.89266602 9.58109863 -3.72283203 8.78719727 -3.54785156 7.96923828 C-2.24926246 2.24926246 -2.24926246 2.24926246 0 0 Z " fill="#FFFFFF" transform="translate(1484,217)"/>
<path d="M0 0 C14.94156255 5.76836873 29.4981604 12.20686234 44 19 C44.8967041 19.41942871 45.7934082 19.83885742 46.71728516 20.27099609 C51.48371219 22.50241544 56.24464612 24.74508355 61 27 C61 27.66 61 28.32 61 29 C59.375 30.48828125 59.375 30.48828125 57 32.3125 C56.08734375 33.0240625 55.1746875 33.735625 54.234375 34.46875 C53.72068359 34.86835938 53.20699219 35.26796875 52.67773438 35.6796875 C49.50003447 38.18041525 46.38096388 40.7537053 43.25 43.3125 C36.47581023 48.82976314 29.63461252 54.25424796 22.74853516 59.63085938 C20.91534172 61.06628926 19.08792487 62.50881791 17.26171875 63.953125 C16.64248535 64.44216309 16.02325195 64.93120117 15.38525391 65.43505859 C14.21604745 66.35870977 13.04767725 67.28342107 11.88037109 68.20947266 C0.73410289 77 0.73410289 77 -2 77 C-5.27997838 54.53800522 -5.7031845 30.43535136 -2 8 C-1.83371094 6.72382813 -1.66742188 5.44765625 -1.49609375 4.1328125 C-1 1 -1 1 0 0 Z " fill="#01798B" transform="translate(75,258)"/>
</svg>
